<?xml version="1.0" standalone="no"?>
<!DOCTYPE svg PUBLIC "-//W3C//DTD SVG 20010904//EN"
 "http://www.w3.org/TR/2001/REC-SVG-20010904/DTD/svg10.dtd">
<svg version="1.0" xmlns="http://www.w3.org/2000/svg"
 width="512.000000pt" height="512.000000pt" viewBox="0 0 512.000000 512.000000"
 preserveAspectRatio="xMidYMid meet">
<metadata>
Created by potrace 1.14, written by Peter Selinger 2001-2017
</metadata>
<g transform="translate(0.000000,512.000000) scale(0.100000,-0.100000)"
fill="#000000" stroke="none">
<path d="M0 2560 l0 -2560 2560 0 2560 0 0 2560 0 2560 -2560 0 -2560 0 0
-2560z m3690 1310 c342 -98 586 -362 661 -715 18 -84 16 -284 -4 -367 -51
-210 -169 -396 -338 -534 l-36 -29 7 -75 c31 -361 -168 -693 -502 -838 -162
-69 -119 -67 -1168 -67 l-945 0 -80 23 c-466 134 -665 646 -409 1049 68 106
214 225 325 264 36 12 37 14 44 73 24 218 102 390 245 540 173 181 367 272
607 283 168 8 308 -19 447 -88 33 -16 61 -29 62 -29 2 0 13 19 25 43 124 244
355 417 640 482 94 22 320 13 419 -15z"/>
</g>
</svg>
